# xmcd
#
# Track frame offsets:
# 150
# 20508
# 32815
# 44457
# 62772
# 82827
# 98938
# 114147
# 128048
# 142135
# 160691
# 178363
#
# Disc length: 2538 seconds
#
#
# Revision: 0
# Processed by: cddbd v1.5.2PL0 Copyright (c) Steve Scherf et al.
# Submitted via: FreeRIP 2.944 
#
DISCID=9d09e80c
DTITLE=DIVERSOS - DANCE NA ALEGRIA DA FÉ 2
DYEAR=2007
DGENRE=CATÓLICA
TTITLE0=Dance na alegria da fé - Medley do Espirito Santo
TTITLE1=Dance na alegria da fé - Tempo de alegria
TTITLE2=Dance na alegria da fé - Medley da vitória
TTITLE3=Dance na alegria da fé -Medley da alegia
TTITLE4=Dance na alegria da fé - Baião das comunidades
TTITLE5=Dance na alegria da fé - Medley da criação
TTITLE6=Dance na alegria da fé - Sinal do Senhor
TTITLE7=Dance na alegria da fé - Medley da paz
TTITLE8=Dance na alegria da fé - Cidadão do infinito
TTITLE9=Dance na alegria da fé - Medley da gratidão
TTITLE10=Dance na alegria da fé - Medley da inquietação
TTITLE11=Dance na alegria da fé - Eu quero ir
EXTD=
EXTT0=
EXTT1=
EXTT2=
EXTT3=
EXTT4=
EXTT5=
EXTT6=
EXTT7=
EXTT8=
EXTT9=
EXTT10=
EXTT11=
PLAYORDER=
